# xmcd CD database file
#
# Track frame offsets:
#	150
#	9309
#	22601
#	35066
#	44290
#	55846
#	71863
#	86781
#	100841
#	105593
#	115685
#	127927
#	138177
#	148255
#	160306
#	172920
#	183276
#	193482
#	204202
#	214879
#	225769
#	237000
#	247885
#	258412
#	271123
#	283827
#	296174
#	312042
#
# Disc length: 4404 seconds
#
# Revision: 0
# Processed by: cddbd v1.4PL0 Copyright (c) Steve Scherf et al.
# Submitted via: CDex 1.40Release
#
DISCID=8411321c
DTITLE=Country Künstler - Country Hits
DYEAR=1900
DGENRE=Country
TTITLE0=Kentucky Buggy
TTITLE1=Rhinestone Cowboy
TTITLE2=Stand by your Man
TTITLE3=Jambalaya
TTITLE4=Cowboy from Kentucky Town
TTITLE5=Welcome to Nashville
TTITLE6=Cottonfields
TTITLE7=Gentle on my mind
TTITLE8=Orange Blossom Special
TTITLE9=Deep in my Heart of Texas
TTITLE10=Oh, Lonesome me
TTITLE11=Bonanza
TTITLE12=Von den Blauen Bergen kommen wir
TTITLE13=Blue Bayou
TTITLE14=On Top of old Smockey
TTITLE15=Some brocken Hearts never Mind
TTITLE16=San Antonio Rose
TTITLE17=7000 Rinder
TTITLE18=Auf meiner Ranch bin ich König
TTITLE19=Geisterreiter
TTITLE20=Ring of Fire
TTITLE21=El Paso
TTITLE22=Tennessee Waltz
TTITLE23=Tom Dooley
TTITLE24=Take me Home, Country Roads
TTITLE25=I walk the Line
TTITLE26=Take it easy
TTITLE27=Any man of mine
EXTD=ID3G: 2
EXTT0=
EXTT1=
EXTT2=
EXTT3=
EXTT4=
EXTT5=
EXTT6=
EXTT7=
EXTT8=
EXTT9=
EXTT10=
EXTT11=
EXTT12=
EXTT13=
EXTT14=
EXTT15=
EXTT16=
EXTT17=
EXTT18=
EXTT19=
EXTT20=
EXTT21=
EXTT22=
EXTT23=
EXTT24=
EXTT25=
EXTT26=
EXTT27=
PLAYORDER=
